# xmcd
#
# Track frame offsets: 
#        150
#        15887
#        33222
#        57318
#        76818
#        104735
#        171718
#        194344
#        220215
#
# Disc length: 3183 seconds
#
# Revision: 0
# Processed by: cddbd v1.5.2PL0 Copyright (c) Steve Scherf et al.
# Submitted via: ExactAudioCopy v0.99pb4
#
DISCID=750c6d09
DTITLE=Holly Cole - Live in Bremen CD2
DYEAR=2003
DGENRE=Blues
TTITLE0=Soldiers Think
TTITLE1=Black Market Baby
TTITLE2=The Briar and the rose
TTITLE3=Ol'55
TTITLE4=Love lies
TTITLE5=Whistlin past the Graveyard
TTITLE6=Have you seen the ghost of john
TTITLE7=On the sunny side of the street
TTITLE8=God only knows
EXTD=
EXTT0=
EXTT1=
EXTT2=
EXTT3=
EXTT4=
EXTT5=
EXTT6=
EXTT7=
EXTT8=
PLAYORDER=
